<svg width="18" height="18" viewBox="0 0 18 18" fill="none" xmlns="http://www.w3.org/2000/svg">
<g id="Group 91">
<path id="Path" fill-rule="evenodd" clip-rule="evenodd" d="M16.234 2.56308C16.7059 2.0912 16.7059 1.32613 16.234 0.854243C15.7621 0.38236 14.997 0.382359 14.5252 0.854242L0.85442 14.525C0.382537 14.9969 0.382537 15.7619 0.85442 16.2338C1.3263 16.7057 2.09138 16.7057 2.56326 16.2338L16.234 2.56308Z" fill="white"/>
<path id="Path_2" fill-rule="evenodd" clip-rule="evenodd" d="M0.898509 0.856862C0.426625 1.32875 0.426625 2.09382 0.898509 2.5657L14.5692 16.2364C15.0411 16.7083 15.8062 16.7083 16.2781 16.2364C16.75 15.7646 16.75 14.9995 16.2781 14.5276L2.60735 0.856863C2.13547 0.384979 1.37039 0.384979 0.898509 0.856862Z" fill="white"/>
</g>
</svg>
