<svg width="17" height="20" viewBox="0 0 17 20" fill="none" xmlns="http://www.w3.org/2000/svg">
<path id="Vector" d="M4.40723 0.937499C4.40723 0.688859 4.50365 0.450402 4.67527 0.274587C4.84689 0.098771 5.07966 -1.04211e-06 5.32237 -1.02089e-06L13.9495 -2.66679e-07C14.7583 0.00093059 15.5337 0.330469 16.1055 0.916319C16.6774 1.50217 16.9991 2.29648 17 3.125L17 16.875C16.9991 17.7035 16.6774 18.4978 16.1055 19.0837C15.5337 19.6695 14.7583 19.9991 13.9495 20L5.32237 20C5.07966 20 4.84689 19.9012 4.67527 19.7254C4.50365 19.5496 4.40723 19.3111 4.40723 19.0625C4.40723 18.8139 4.50365 18.5754 4.67527 18.3996C4.84689 18.2238 5.07966 18.125 5.32237 18.125L13.9495 18.125C14.2731 18.1246 14.5832 17.9928 14.812 17.7585C15.0407 17.5241 15.1694 17.2064 15.1697 16.875L15.1697 3.125C15.1694 2.79359 15.0407 2.47585 14.812 2.2415C14.5832 2.00716 14.2731 1.87535 13.9495 1.875L5.32237 1.875C5.07966 1.875 4.84689 1.77623 4.67527 1.60041C4.50365 1.4246 4.40723 1.18614 4.40723 0.937499ZM0.268035 10.6629L4.61688 15.118C4.70151 15.2067 4.80246 15.2773 4.9139 15.3257C5.02533 15.3741 5.14503 15.3994 5.26607 15.4C5.38711 15.4007 5.50708 15.3768 5.61903 15.3297C5.73098 15.2825 5.83269 15.2131 5.91828 15.1254C6.00386 15.0377 6.07161 14.9335 6.11761 14.8188C6.16361 14.7042 6.18694 14.5812 6.18626 14.4573C6.18558 14.3333 6.16089 14.2106 6.11362 14.0965C6.06636 13.9823 5.99746 13.8789 5.91092 13.7922L3.12444 10.9375L10.3287 10.9375C10.5714 10.9375 10.8042 10.8387 10.9758 10.6629C11.1474 10.4871 11.2438 10.2486 11.2438 10C11.2438 9.75136 11.1474 9.5129 10.9758 9.33709C10.8042 9.16127 10.5714 9.0625 10.3287 9.0625L3.12448 9.0625L5.91107 6.20781C5.99643 6.12084 6.0642 6.01748 6.11049 5.90363C6.15679 5.78979 6.1807 5.6677 6.18087 5.54437C6.18103 5.42104 6.15744 5.2989 6.11145 5.18492C6.06545 5.07095 5.99796 4.96739 5.91283 4.88019C5.8277 4.79298 5.72662 4.72384 5.61537 4.67672C5.50411 4.6296 5.38487 4.60543 5.26449 4.6056C5.1441 4.60577 5.02493 4.63027 4.9138 4.6777C4.80267 4.72512 4.70177 4.79455 4.61688 4.88199L0.268035 9.33707C0.0964155 9.51288 8.95966e-07 9.75134 8.74229e-07 9.99998C8.52493e-07 10.2486 0.0964154 10.4871 0.268035 10.6629Z" fill="white"/>
</svg>
