<svg width="23" height="15" viewBox="0 0 23 15" fill="none" xmlns="http://www.w3.org/2000/svg">
<path id="Mask" fill-rule="evenodd" clip-rule="evenodd" d="M21.1667 14.75C21.834 14.75 22.375 14.209 22.375 13.5417C22.375 12.8743 21.834 12.3333 21.1667 12.3333H1.83333C1.16599 12.3333 0.625 12.8743 0.625 13.5417C0.625 14.209 1.16599 14.75 1.83333 14.75H21.1667ZM21.1667 8.70833C21.834 8.70833 22.375 8.16734 22.375 7.5C22.375 6.83266 21.834 6.29167 21.1667 6.29167H1.83333C1.16599 6.29167 0.625 6.83266 0.625 7.5C0.625 8.16734 1.16599 8.70833 1.83333 8.70833H21.1667ZM0.625 1.45833C0.625 2.12568 1.16599 2.66667 1.83333 2.66667H21.1667C21.834 2.66667 22.375 2.12568 22.375 1.45833C22.375 0.790989 21.834 0.25 21.1667 0.25H1.83333C1.16599 0.25 0.625 0.790989 0.625 1.45833Z" fill="white"/>
</svg>
